<mxfile host="Electron" agent="Mozilla/5.0 (X11; Linux x86_64) AppleWebKit/537.36 (KHTML, like Gecko) draw.io/28.0.6 Chrome/138.0.7204.100 Electron/37.2.3 Safari/537.36" version="28.0.6">
  <diagram name="Strona-1" id="g_sFPEgD2kjfMV7_-Lf5">
    <mxGraphModel dx="1556" dy="894" grid="1" gridSize="5" guides="1" tooltips="1" connect="1" arrows="1" fold="1" page="1" pageScale="1" pageWidth="1654" pageHeight="1169" background="#ffffff" math="0" shadow="0">
      <root>
        <mxCell id="0" />
        <mxCell id="1" parent="0" />
        <mxCell id="6uAw8xBfnVH4JJ780lHa-17" value="" style="swimlane;startSize=0;rounded=1;strokeColor=none;swimlaneFillColor=#F9F9F9;swimlaneLine=0;shadow=1;fillStyle=solid;" vertex="1" parent="1">
          <mxGeometry x="20" y="20" width="940" height="800" as="geometry">
            <mxRectangle x="20" y="20" width="30" height="25" as="alternateBounds" />
          </mxGeometry>
        </mxCell>
        <mxCell id="6uAw8xBfnVH4JJ780lHa-4" value="cw-multi-test" style="swimlane;whiteSpace=wrap;html=1;fillColor=#D0CEE2;rounded=1;strokeColor=#B3B3B3;fontSize=10;startSize=15;swimlaneFillColor=default;" vertex="1" parent="6uAw8xBfnVH4JJ780lHa-17">
          <mxGeometry x="760" y="260" width="160" height="100" as="geometry" />
        </mxCell>
        <mxCell id="6uAw8xBfnVH4JJ780lHa-5" value="&lt;b&gt;cw-multi-test&lt;/b&gt;&lt;div&gt;&lt;div&gt;3.0.1&lt;/div&gt;&lt;/div&gt;" style="rounded=1;whiteSpace=wrap;html=1;fillColor=#d0cee2;strokeColor=#56517e;shadow=1;" vertex="1" parent="6uAw8xBfnVH4JJ780lHa-4">
          <mxGeometry x="20" y="30" width="120" height="50" as="geometry" />
        </mxCell>
        <mxCell id="xYi-b84WzYEuYBwjNvaO-46" value="cw-minus" style="swimlane;whiteSpace=wrap;html=1;fontFamily=Helvetica;fontSize=10;fontColor=default;labelBackgroundColor=none;strokeColor=#B3B3B3;rounded=1;shadow=0;swimlaneLine=1;fillColor=#FFCC99;startSize=15;fillStyle=auto;swimlaneFillColor=#FFFFFF;" parent="6uAw8xBfnVH4JJ780lHa-17" vertex="1">
          <mxGeometry x="20" y="40" width="435" height="200" as="geometry" />
        </mxCell>
        <mxCell id="xYi-b84WzYEuYBwjNvaO-16" style="shape=connector;rounded=0;orthogonalLoop=1;jettySize=auto;html=1;entryX=-0.006;entryY=0.282;entryDx=0;entryDy=0;strokeColor=default;align=center;verticalAlign=middle;fontFamily=Helvetica;fontSize=11;fontColor=default;labelBackgroundColor=default;startSize=5;endArrow=classic;endFill=1;endSize=5;entryPerimeter=0;" parent="xYi-b84WzYEuYBwjNvaO-46" source="xYi-b84WzYEuYBwjNvaO-13" target="xYi-b84WzYEuYBwjNvaO-14" edge="1">
          <mxGeometry relative="1" as="geometry" />
        </mxCell>
        <mxCell id="xYi-b84WzYEuYBwjNvaO-13" value="&lt;b&gt;cw-utils&lt;/b&gt;&lt;div&gt;&lt;div&gt;3.0&lt;span style=&quot;background-color: transparent; color: light-dark(rgb(0, 0, 0), rgb(255, 255, 255));&quot;&gt;.0&lt;/span&gt;&lt;/div&gt;&lt;/div&gt;" style="rounded=1;whiteSpace=wrap;html=1;fillColor=#ffcc99;strokeColor=#36393d;shadow=1;align=center;verticalAlign=middle;fontFamily=Helvetica;fontSize=12;" parent="xYi-b84WzYEuYBwjNvaO-46" vertex="1">
          <mxGeometry x="100" y="40" width="90" height="50" as="geometry" />
        </mxCell>
        <mxCell id="xYi-b84WzYEuYBwjNvaO-14" value="&lt;b&gt;cw-controllers&lt;/b&gt;&lt;div&gt;&lt;div&gt;3.0&lt;span style=&quot;background-color: transparent; color: light-dark(rgb(0, 0, 0), rgb(255, 255, 255));&quot;&gt;.0&lt;/span&gt;&lt;/div&gt;&lt;/div&gt;" style="rounded=1;whiteSpace=wrap;html=1;fillColor=#ffcc99;strokeColor=#36393d;shadow=1;align=center;verticalAlign=middle;fontFamily=Helvetica;fontSize=12;" parent="xYi-b84WzYEuYBwjNvaO-46" vertex="1">
          <mxGeometry x="265" y="100" width="120" height="50" as="geometry" />
        </mxCell>
        <mxCell id="xYi-b84WzYEuYBwjNvaO-15" value="&lt;b&gt;cw2&lt;/b&gt;&lt;div&gt;&lt;div&gt;3.0&lt;span style=&quot;background-color: transparent; color: light-dark(rgb(0, 0, 0), rgb(255, 255, 255));&quot;&gt;.0&lt;/span&gt;&lt;/div&gt;&lt;/div&gt;" style="rounded=1;whiteSpace=wrap;html=1;fillColor=#ffcc99;strokeColor=#36393d;shadow=1;align=center;verticalAlign=middle;fontFamily=Helvetica;fontSize=12;" parent="xYi-b84WzYEuYBwjNvaO-46" vertex="1">
          <mxGeometry x="20" y="80" width="60" height="50" as="geometry" />
        </mxCell>
        <mxCell id="6uAw8xBfnVH4JJ780lHa-13" value="&lt;font style=&quot;font-size: 8px;&quot;&gt;cw-utils&lt;/font&gt;" style="rounded=1;whiteSpace=wrap;html=1;fillColor=#ffcc99;strokeColor=#36393d;shadow=0;glass=0;verticalAlign=bottom;rotation=-90;" vertex="1" parent="xYi-b84WzYEuYBwjNvaO-46">
          <mxGeometry x="410" y="175" width="35" height="15" as="geometry" />
        </mxCell>
        <mxCell id="xYi-b84WzYEuYBwjNvaO-24" style="shape=connector;rounded=0;orthogonalLoop=1;jettySize=auto;html=1;entryX=0.5;entryY=1;entryDx=0;entryDy=0;strokeColor=default;align=center;verticalAlign=middle;fontFamily=Helvetica;fontSize=11;fontColor=default;labelBackgroundColor=default;startSize=5;endArrow=classic;endFill=1;endSize=5;exitX=0.549;exitY=0.627;exitDx=0;exitDy=0;exitPerimeter=0;" parent="6uAw8xBfnVH4JJ780lHa-17" source="xYi-b84WzYEuYBwjNvaO-28" target="xYi-b84WzYEuYBwjNvaO-13" edge="1">
          <mxGeometry relative="1" as="geometry" />
        </mxCell>
        <mxCell id="xYi-b84WzYEuYBwjNvaO-23" style="shape=connector;rounded=0;orthogonalLoop=1;jettySize=auto;html=1;entryX=0.548;entryY=0.981;entryDx=0;entryDy=0;entryPerimeter=0;strokeColor=default;align=center;verticalAlign=middle;fontFamily=Helvetica;fontSize=11;fontColor=default;labelBackgroundColor=default;startSize=5;endArrow=classic;endFill=1;endSize=5;" parent="6uAw8xBfnVH4JJ780lHa-17" source="xYi-b84WzYEuYBwjNvaO-28" target="xYi-b84WzYEuYBwjNvaO-14" edge="1">
          <mxGeometry relative="1" as="geometry" />
        </mxCell>
        <mxCell id="xYi-b84WzYEuYBwjNvaO-26" style="shape=connector;rounded=0;orthogonalLoop=1;jettySize=auto;html=1;strokeColor=default;align=center;verticalAlign=middle;fontFamily=Helvetica;fontSize=11;fontColor=default;labelBackgroundColor=default;startSize=5;endArrow=classic;endFill=1;endSize=5;dashed=1;exitX=0.002;exitY=0.301;exitDx=0;exitDy=0;exitPerimeter=0;" parent="6uAw8xBfnVH4JJ780lHa-17" source="xYi-b84WzYEuYBwjNvaO-1" target="xYi-b84WzYEuYBwjNvaO-13" edge="1">
          <mxGeometry relative="1" as="geometry">
            <mxPoint x="248" y="164" as="targetPoint" />
          </mxGeometry>
        </mxCell>
        <mxCell id="xYi-b84WzYEuYBwjNvaO-30" style="shape=connector;rounded=0;orthogonalLoop=1;jettySize=auto;html=1;entryX=0.997;entryY=0.707;entryDx=0;entryDy=0;entryPerimeter=0;strokeColor=default;align=center;verticalAlign=middle;fontFamily=Helvetica;fontSize=11;fontColor=default;labelBackgroundColor=default;startSize=5;endArrow=classic;endFill=1;endSize=5;exitX=0.302;exitY=0.64;exitDx=0;exitDy=0;exitPerimeter=0;" parent="6uAw8xBfnVH4JJ780lHa-17" source="xYi-b84WzYEuYBwjNvaO-28" target="xYi-b84WzYEuYBwjNvaO-15" edge="1">
          <mxGeometry relative="1" as="geometry" />
        </mxCell>
        <mxCell id="xYi-b84WzYEuYBwjNvaO-35" style="shape=connector;rounded=0;orthogonalLoop=1;jettySize=auto;html=1;entryX=0.773;entryY=0.999;entryDx=0;entryDy=0;strokeColor=default;align=center;verticalAlign=middle;fontFamily=Helvetica;fontSize=11;fontColor=default;labelBackgroundColor=default;startSize=5;endArrow=classic;endFill=1;endSize=5;entryPerimeter=0;" parent="6uAw8xBfnVH4JJ780lHa-17" source="xYi-b84WzYEuYBwjNvaO-34" target="xYi-b84WzYEuYBwjNvaO-15" edge="1">
          <mxGeometry relative="1" as="geometry" />
        </mxCell>
        <mxCell id="xYi-b84WzYEuYBwjNvaO-36" style="shape=connector;rounded=0;orthogonalLoop=1;jettySize=auto;html=1;entryX=0.205;entryY=0.998;entryDx=0;entryDy=0;strokeColor=default;align=center;verticalAlign=middle;fontFamily=Helvetica;fontSize=11;fontColor=default;labelBackgroundColor=default;startSize=5;endArrow=classic;endFill=1;endSize=5;entryPerimeter=0;" parent="6uAw8xBfnVH4JJ780lHa-17" source="xYi-b84WzYEuYBwjNvaO-34" target="xYi-b84WzYEuYBwjNvaO-13" edge="1">
          <mxGeometry relative="1" as="geometry" />
        </mxCell>
        <mxCell id="xYi-b84WzYEuYBwjNvaO-37" style="shape=connector;rounded=0;orthogonalLoop=1;jettySize=auto;html=1;entryX=0;entryY=0.903;entryDx=0;entryDy=0;entryPerimeter=0;strokeColor=default;align=center;verticalAlign=middle;fontFamily=Helvetica;fontSize=11;fontColor=default;labelBackgroundColor=default;startSize=5;endArrow=classic;endFill=1;endSize=5;" parent="6uAw8xBfnVH4JJ780lHa-17" source="xYi-b84WzYEuYBwjNvaO-34" target="xYi-b84WzYEuYBwjNvaO-14" edge="1">
          <mxGeometry relative="1" as="geometry" />
        </mxCell>
        <mxCell id="6uAw8xBfnVH4JJ780lHa-1" value="cw-storage-plus" style="swimlane;whiteSpace=wrap;html=1;rounded=1;strokeColor=#B3B3B3;fillColor=#B0E3E6;fontSize=10;startSize=15;swimlaneFillColor=default;" vertex="1" parent="6uAw8xBfnVH4JJ780lHa-17">
          <mxGeometry x="480" y="20" width="180" height="200" as="geometry" />
        </mxCell>
        <mxCell id="xYi-b84WzYEuYBwjNvaO-1" value="&lt;b&gt;cw-storage-plus&lt;/b&gt;&lt;div&gt;&lt;div&gt;3.0.0&lt;/div&gt;&lt;/div&gt;" style="rounded=1;whiteSpace=wrap;html=1;fillColor=#b0e3e6;strokeColor=#0e8088;shadow=1;" parent="6uAw8xBfnVH4JJ780lHa-1" vertex="1">
          <mxGeometry x="30" y="40" width="120" height="50" as="geometry" />
        </mxCell>
        <mxCell id="xYi-b84WzYEuYBwjNvaO-2" value="&lt;b&gt;cw-storage-macro&lt;/b&gt;&lt;div&gt;&lt;div&gt;2.1.0&lt;/div&gt;&lt;/div&gt;" style="rounded=1;whiteSpace=wrap;html=1;fillColor=#b0e3e6;strokeColor=#0e8088;shadow=1;" parent="6uAw8xBfnVH4JJ780lHa-1" vertex="1">
          <mxGeometry x="30" y="130" width="120" height="50" as="geometry" />
        </mxCell>
        <mxCell id="xYi-b84WzYEuYBwjNvaO-5" style="shape=connector;rounded=0;orthogonalLoop=1;jettySize=auto;html=1;entryX=0.5;entryY=1;entryDx=0;entryDy=0;strokeColor=default;align=center;verticalAlign=middle;fontFamily=Helvetica;fontSize=11;fontColor=default;labelBackgroundColor=default;startSize=5;endArrow=classic;endFill=1;endSize=5;" parent="6uAw8xBfnVH4JJ780lHa-1" source="xYi-b84WzYEuYBwjNvaO-2" target="xYi-b84WzYEuYBwjNvaO-1" edge="1">
          <mxGeometry relative="1" as="geometry" />
        </mxCell>
        <mxCell id="xYi-b84WzYEuYBwjNvaO-45" value="cosmwasm" style="swimlane;horizontal=0;whiteSpace=wrap;html=1;fontFamily=Helvetica;fontSize=10;fontColor=default;labelBackgroundColor=none;strokeColor=#B3B3B3;rounded=1;fillColor=light-dark(#D5E8D4,#EDEDED);startSize=15;swimlaneFillColor=default;" parent="6uAw8xBfnVH4JJ780lHa-17" vertex="1">
          <mxGeometry x="20" y="260" width="680" height="525" as="geometry" />
        </mxCell>
        <mxCell id="6uAw8xBfnVH4JJ780lHa-3" value="&lt;font style=&quot;font-size: 8px;&quot;&gt;cosmwasm-schema&lt;/font&gt;" style="rounded=1;whiteSpace=wrap;html=1;fillColor=#d5e8d4;strokeColor=#82b366;shadow=0;glass=0;verticalAlign=middle;" vertex="1" parent="xYi-b84WzYEuYBwjNvaO-45">
          <mxGeometry x="100" width="80" height="15" as="geometry" />
        </mxCell>
        <mxCell id="xYi-b84WzYEuYBwjNvaO-43" value="&lt;font style=&quot;font-size: 8px;&quot;&gt;cosmwasm-std&lt;/font&gt;" style="rounded=1;whiteSpace=wrap;html=1;fillColor=#d5e8d4;strokeColor=#82b366;shadow=0;glass=0;verticalAlign=middle;" parent="xYi-b84WzYEuYBwjNvaO-45" vertex="1">
          <mxGeometry x="320" width="60" height="15" as="geometry" />
        </mxCell>
        <mxCell id="jCbWclXcDCK_UydNv-eQ-34" style="edgeStyle=orthogonalEdgeStyle;rounded=0;orthogonalLoop=1;jettySize=auto;html=1;entryX=0.5;entryY=1;entryDx=0;entryDy=0;strokeColor=default;align=center;verticalAlign=middle;fontFamily=Helvetica;fontSize=11;fontColor=default;labelBackgroundColor=default;startSize=5;endArrow=classic;endFill=1;endSize=5;curved=0;" parent="xYi-b84WzYEuYBwjNvaO-45" source="jCbWclXcDCK_UydNv-eQ-13" target="jCbWclXcDCK_UydNv-eQ-12" edge="1">
          <mxGeometry relative="1" as="geometry">
            <mxPoint x="210" y="340" as="targetPoint" />
          </mxGeometry>
        </mxCell>
        <mxCell id="jCbWclXcDCK_UydNv-eQ-45" style="edgeStyle=orthogonalEdgeStyle;rounded=0;orthogonalLoop=1;jettySize=auto;html=1;entryX=0.831;entryY=1;entryDx=0;entryDy=0;entryPerimeter=0;strokeColor=default;align=center;verticalAlign=middle;fontFamily=Helvetica;fontSize=11;fontColor=default;labelBackgroundColor=default;startSize=5;endArrow=classic;endFill=1;endSize=5;curved=0;" parent="xYi-b84WzYEuYBwjNvaO-45" source="jCbWclXcDCK_UydNv-eQ-8" target="jCbWclXcDCK_UydNv-eQ-1" edge="1">
          <mxGeometry relative="1" as="geometry">
            <Array as="points">
              <mxPoint x="380" y="270" />
              <mxPoint x="380" y="270" />
            </Array>
          </mxGeometry>
        </mxCell>
        <mxCell id="jCbWclXcDCK_UydNv-eQ-44" style="edgeStyle=orthogonalEdgeStyle;rounded=0;orthogonalLoop=1;jettySize=auto;html=1;entryX=0.245;entryY=1.011;entryDx=0;entryDy=0;entryPerimeter=0;strokeColor=default;align=center;verticalAlign=middle;fontFamily=Helvetica;fontSize=11;fontColor=default;labelBackgroundColor=default;startSize=5;endArrow=classic;endFill=1;endSize=5;curved=0;" parent="xYi-b84WzYEuYBwjNvaO-45" target="jCbWclXcDCK_UydNv-eQ-1" edge="1">
          <mxGeometry relative="1" as="geometry">
            <mxPoint x="270" y="403.75" as="sourcePoint" />
            <mxPoint x="309.52" y="170" as="targetPoint" />
            <Array as="points">
              <mxPoint x="309" y="404" />
            </Array>
          </mxGeometry>
        </mxCell>
        <mxCell id="jCbWclXcDCK_UydNv-eQ-43" style="edgeStyle=orthogonalEdgeStyle;rounded=0;orthogonalLoop=1;jettySize=auto;html=1;entryX=0.134;entryY=1.003;entryDx=0;entryDy=0;entryPerimeter=0;strokeColor=default;align=center;verticalAlign=middle;fontFamily=Helvetica;fontSize=11;fontColor=default;labelBackgroundColor=default;startSize=5;endArrow=classic;endFill=1;endSize=5;curved=0;" parent="xYi-b84WzYEuYBwjNvaO-45" source="jCbWclXcDCK_UydNv-eQ-12" target="jCbWclXcDCK_UydNv-eQ-1" edge="1">
          <mxGeometry relative="1" as="geometry">
            <mxPoint x="296" y="170" as="targetPoint" />
          </mxGeometry>
        </mxCell>
        <mxCell id="jCbWclXcDCK_UydNv-eQ-19" style="edgeStyle=orthogonalEdgeStyle;rounded=0;orthogonalLoop=1;jettySize=auto;html=1;entryX=0.5;entryY=1;entryDx=0;entryDy=0;strokeColor=default;align=center;verticalAlign=middle;fontFamily=Helvetica;fontSize=11;fontColor=default;labelBackgroundColor=default;startSize=5;endArrow=classic;endFill=1;endSize=5;curved=0;" parent="xYi-b84WzYEuYBwjNvaO-45" source="jCbWclXcDCK_UydNv-eQ-18" target="jCbWclXcDCK_UydNv-eQ-17" edge="1">
          <mxGeometry relative="1" as="geometry">
            <Array as="points">
              <mxPoint x="605" y="445" />
              <mxPoint x="605" y="445" />
            </Array>
          </mxGeometry>
        </mxCell>
        <mxCell id="jCbWclXcDCK_UydNv-eQ-52" style="edgeStyle=orthogonalEdgeStyle;rounded=0;orthogonalLoop=1;jettySize=auto;html=1;entryX=1;entryY=0.28;entryDx=0;entryDy=0;entryPerimeter=0;strokeColor=default;align=center;verticalAlign=middle;fontFamily=Helvetica;fontSize=11;fontColor=default;labelBackgroundColor=default;startSize=5;endArrow=classic;endFill=1;endSize=5;curved=0;" parent="xYi-b84WzYEuYBwjNvaO-45" source="jCbWclXcDCK_UydNv-eQ-17" target="jCbWclXcDCK_UydNv-eQ-1" edge="1">
          <mxGeometry relative="1" as="geometry">
            <Array as="points">
              <mxPoint x="630" y="134" />
            </Array>
          </mxGeometry>
        </mxCell>
        <mxCell id="jCbWclXcDCK_UydNv-eQ-51" style="edgeStyle=orthogonalEdgeStyle;rounded=0;orthogonalLoop=1;jettySize=auto;html=1;exitX=0.219;exitY=0.008;exitDx=0;exitDy=0;exitPerimeter=0;entryX=1.003;entryY=0.704;entryDx=0;entryDy=0;strokeColor=default;align=center;verticalAlign=middle;fontFamily=Helvetica;fontSize=11;fontColor=default;labelBackgroundColor=default;startSize=5;endArrow=classic;endFill=1;endSize=5;curved=0;entryPerimeter=0;" parent="xYi-b84WzYEuYBwjNvaO-45" source="jCbWclXcDCK_UydNv-eQ-17" target="jCbWclXcDCK_UydNv-eQ-8" edge="1">
          <mxGeometry relative="1" as="geometry">
            <mxPoint x="495" y="305" as="targetPoint" />
            <Array as="points">
              <mxPoint x="580" y="355" />
              <mxPoint x="580" y="355" />
              <mxPoint x="580" y="315" />
              <mxPoint x="479" y="315" />
            </Array>
          </mxGeometry>
        </mxCell>
        <mxCell id="jCbWclXcDCK_UydNv-eQ-48" style="edgeStyle=orthogonalEdgeStyle;rounded=0;orthogonalLoop=1;jettySize=auto;html=1;entryX=1;entryY=0.75;entryDx=0;entryDy=0;exitX=0.5;exitY=0;exitDx=0;exitDy=0;strokeColor=default;align=center;verticalAlign=middle;fontFamily=Helvetica;fontSize=11;fontColor=default;labelBackgroundColor=default;startSize=5;endArrow=classic;endFill=1;endSize=5;curved=0;" parent="xYi-b84WzYEuYBwjNvaO-45" source="jCbWclXcDCK_UydNv-eQ-10" target="jCbWclXcDCK_UydNv-eQ-1" edge="1">
          <mxGeometry relative="1" as="geometry">
            <Array as="points">
              <mxPoint x="450" y="158" />
            </Array>
          </mxGeometry>
        </mxCell>
        <mxCell id="jCbWclXcDCK_UydNv-eQ-46" style="edgeStyle=orthogonalEdgeStyle;rounded=0;orthogonalLoop=1;jettySize=auto;html=1;entryX=0;entryY=0.5;entryDx=0;entryDy=0;strokeColor=default;align=center;verticalAlign=middle;fontFamily=Helvetica;fontSize=11;fontColor=default;labelBackgroundColor=default;startSize=5;endArrow=classic;endFill=1;endSize=5;curved=0;" parent="xYi-b84WzYEuYBwjNvaO-45" source="jCbWclXcDCK_UydNv-eQ-13" target="jCbWclXcDCK_UydNv-eQ-4" edge="1">
          <mxGeometry relative="1" as="geometry">
            <Array as="points">
              <mxPoint x="40" y="405" />
              <mxPoint x="40" y="145" />
            </Array>
          </mxGeometry>
        </mxCell>
        <mxCell id="jCbWclXcDCK_UydNv-eQ-39" style="edgeStyle=orthogonalEdgeStyle;rounded=0;orthogonalLoop=1;jettySize=auto;html=1;entryX=0.75;entryY=1;entryDx=0;entryDy=0;strokeColor=default;align=center;verticalAlign=middle;fontFamily=Helvetica;fontSize=11;fontColor=default;labelBackgroundColor=default;startSize=5;endArrow=classic;endFill=1;endSize=5;curved=0;" parent="xYi-b84WzYEuYBwjNvaO-45" source="jCbWclXcDCK_UydNv-eQ-1" target="jCbWclXcDCK_UydNv-eQ-2" edge="1">
          <mxGeometry relative="1" as="geometry">
            <Array as="points">
              <mxPoint x="310" y="100" />
              <mxPoint x="210" y="100" />
            </Array>
          </mxGeometry>
        </mxCell>
        <mxCell id="jCbWclXcDCK_UydNv-eQ-47" style="edgeStyle=orthogonalEdgeStyle;rounded=0;orthogonalLoop=1;jettySize=auto;html=1;curved=0;strokeColor=default;align=center;verticalAlign=middle;fontFamily=Helvetica;fontSize=11;fontColor=default;labelBackgroundColor=default;endArrow=classic;entryX=0.25;entryY=1;entryDx=0;entryDy=0;endFill=1;startSize=5;endSize=5;" parent="xYi-b84WzYEuYBwjNvaO-45" source="jCbWclXcDCK_UydNv-eQ-4" target="jCbWclXcDCK_UydNv-eQ-2" edge="1">
          <mxGeometry relative="1" as="geometry">
            <mxPoint x="140" y="80" as="targetPoint" />
            <Array as="points">
              <mxPoint x="150" y="110" />
              <mxPoint x="150" y="110" />
            </Array>
          </mxGeometry>
        </mxCell>
        <mxCell id="jCbWclXcDCK_UydNv-eQ-42" style="edgeStyle=orthogonalEdgeStyle;rounded=0;orthogonalLoop=1;jettySize=auto;html=1;strokeColor=default;align=center;verticalAlign=middle;fontFamily=Helvetica;fontSize=11;fontColor=default;labelBackgroundColor=default;startSize=5;endArrow=classic;endFill=1;endSize=5;curved=0;" parent="xYi-b84WzYEuYBwjNvaO-45" source="jCbWclXcDCK_UydNv-eQ-12" edge="1">
          <mxGeometry relative="1" as="geometry">
            <mxPoint x="190" y="155" as="targetPoint" />
            <Array as="points">
              <mxPoint x="235" y="155" />
            </Array>
          </mxGeometry>
        </mxCell>
        <mxCell id="jCbWclXcDCK_UydNv-eQ-40" style="edgeStyle=orthogonalEdgeStyle;rounded=0;orthogonalLoop=1;jettySize=auto;html=1;entryX=0.998;entryY=0.303;entryDx=0;entryDy=0;entryPerimeter=0;strokeColor=default;align=center;verticalAlign=middle;fontFamily=Helvetica;fontSize=11;fontColor=default;labelBackgroundColor=default;startSize=5;endArrow=classic;endFill=1;endSize=5;curved=0;" parent="xYi-b84WzYEuYBwjNvaO-45" source="jCbWclXcDCK_UydNv-eQ-1" target="jCbWclXcDCK_UydNv-eQ-4" edge="1">
          <mxGeometry relative="1" as="geometry">
            <Array as="points">
              <mxPoint x="190" y="135" />
            </Array>
          </mxGeometry>
        </mxCell>
        <mxCell id="vACNibe5N-CeRTmWkf9M-2" style="edgeStyle=orthogonalEdgeStyle;rounded=0;orthogonalLoop=1;jettySize=auto;html=1;strokeColor=default;startSize=5;endSize=5;align=center;verticalAlign=middle;fontFamily=Helvetica;fontSize=11;fontColor=default;labelBackgroundColor=default;endArrow=classic;endFill=1;curved=0;entryX=0.293;entryY=1.002;entryDx=0;entryDy=0;entryPerimeter=0;" parent="xYi-b84WzYEuYBwjNvaO-45" source="jCbWclXcDCK_UydNv-eQ-1" target="vACNibe5N-CeRTmWkf9M-1" edge="1">
          <mxGeometry relative="1" as="geometry">
            <Array as="points">
              <mxPoint x="370" y="100" />
              <mxPoint x="495" y="100" />
              <mxPoint x="495" y="80" />
            </Array>
            <mxPoint x="475" y="90" as="targetPoint" />
          </mxGeometry>
        </mxCell>
        <mxCell id="jCbWclXcDCK_UydNv-eQ-1" value="&lt;b&gt;cosmwasm-std&lt;/b&gt;&lt;br&gt;3.0.2" style="rounded=1;whiteSpace=wrap;html=1;fillColor=#d5e8d4;strokeColor=#82b366;shadow=1;glass=0;" parent="xYi-b84WzYEuYBwjNvaO-45" vertex="1">
          <mxGeometry x="280" y="120" width="120" height="50" as="geometry" />
        </mxCell>
        <mxCell id="jCbWclXcDCK_UydNv-eQ-2" value="&lt;b&gt;cosmwasm-check&lt;/b&gt;&lt;div&gt;3.0.2&lt;/div&gt;" style="rounded=1;whiteSpace=wrap;html=1;fillColor=#d5e8d4;strokeColor=#82b366;shadow=1;" parent="xYi-b84WzYEuYBwjNvaO-45" vertex="1">
          <mxGeometry x="120" y="30" width="120" height="50" as="geometry" />
        </mxCell>
        <mxCell id="jCbWclXcDCK_UydNv-eQ-29" style="edgeStyle=orthogonalEdgeStyle;rounded=0;orthogonalLoop=1;jettySize=auto;html=1;entryX=0.5;entryY=1;entryDx=0;entryDy=0;strokeColor=default;align=center;verticalAlign=middle;fontFamily=Helvetica;fontSize=11;fontColor=default;labelBackgroundColor=default;startSize=5;endArrow=classic;endFill=1;endSize=5;curved=0;" parent="xYi-b84WzYEuYBwjNvaO-45" source="jCbWclXcDCK_UydNv-eQ-3" target="jCbWclXcDCK_UydNv-eQ-8" edge="1">
          <mxGeometry relative="1" as="geometry" />
        </mxCell>
        <mxCell id="jCbWclXcDCK_UydNv-eQ-3" value="&lt;b&gt;cosmwasm-schema-derive&lt;/b&gt;&lt;div&gt;3.0.2&lt;/div&gt;" style="rounded=1;whiteSpace=wrap;html=1;fillColor=#d5e8d4;strokeColor=#82b366;shadow=1;glass=0;" parent="xYi-b84WzYEuYBwjNvaO-45" vertex="1">
          <mxGeometry x="329" y="380" width="170" height="50" as="geometry" />
        </mxCell>
        <mxCell id="jCbWclXcDCK_UydNv-eQ-37" style="edgeStyle=orthogonalEdgeStyle;rounded=0;orthogonalLoop=1;jettySize=auto;html=1;entryX=0.5;entryY=1;entryDx=0;entryDy=0;strokeColor=default;align=center;verticalAlign=middle;fontFamily=Helvetica;fontSize=11;fontColor=default;labelBackgroundColor=default;startSize=5;endArrow=classic;endFill=1;endSize=5;curved=0;" parent="xYi-b84WzYEuYBwjNvaO-45" source="jCbWclXcDCK_UydNv-eQ-5" target="jCbWclXcDCK_UydNv-eQ-4" edge="1">
          <mxGeometry relative="1" as="geometry" />
        </mxCell>
        <mxCell id="jCbWclXcDCK_UydNv-eQ-4" value="&lt;b&gt;cosmwasm-vm&lt;/b&gt;&lt;div&gt;3.0.2&lt;/div&gt;" style="rounded=1;whiteSpace=wrap;html=1;fillColor=#d5e8d4;strokeColor=#82b366;shadow=1;glass=0;" parent="xYi-b84WzYEuYBwjNvaO-45" vertex="1">
          <mxGeometry x="90" y="120" width="100" height="50" as="geometry" />
        </mxCell>
        <mxCell id="jCbWclXcDCK_UydNv-eQ-5" value="&lt;b&gt;cosmwasm-vm-derive&lt;/b&gt;&lt;div&gt;3.0.2&lt;/div&gt;" style="rounded=1;whiteSpace=wrap;html=1;fillColor=#d5e8d4;strokeColor=#82b366;shadow=1;glass=0;" parent="xYi-b84WzYEuYBwjNvaO-45" vertex="1">
          <mxGeometry x="67.5" y="200" width="145" height="50" as="geometry" />
        </mxCell>
        <mxCell id="vACNibe5N-CeRTmWkf9M-3" style="edgeStyle=orthogonalEdgeStyle;rounded=0;orthogonalLoop=1;jettySize=auto;html=1;strokeColor=default;align=center;verticalAlign=middle;fontFamily=Helvetica;fontSize=11;fontColor=default;labelBackgroundColor=default;endArrow=classic;startSize=5;endSize=5;endFill=1;curved=0;entryX=0.709;entryY=1.005;entryDx=0;entryDy=0;entryPerimeter=0;" parent="xYi-b84WzYEuYBwjNvaO-45" source="jCbWclXcDCK_UydNv-eQ-8" target="vACNibe5N-CeRTmWkf9M-1" edge="1">
          <mxGeometry relative="1" as="geometry">
            <Array as="points">
              <mxPoint x="545" y="295" />
              <mxPoint x="545" y="80" />
            </Array>
            <mxPoint x="495" y="90" as="targetPoint" />
          </mxGeometry>
        </mxCell>
        <mxCell id="jCbWclXcDCK_UydNv-eQ-8" value="&lt;b&gt;cosmwasm-schema&lt;/b&gt;&lt;div&gt;3.0.2&lt;/div&gt;" style="rounded=1;whiteSpace=wrap;html=1;fillColor=#d5e8d4;strokeColor=#82b366;shadow=1;glass=0;" parent="xYi-b84WzYEuYBwjNvaO-45" vertex="1">
          <mxGeometry x="349" y="280" width="130" height="50" as="geometry" />
        </mxCell>
        <mxCell id="jCbWclXcDCK_UydNv-eQ-10" value="&lt;b&gt;cosmwasm-derive&lt;/b&gt;&lt;br&gt;3.0.2" style="rounded=1;whiteSpace=wrap;html=1;fillColor=#d5e8d4;strokeColor=#82b366;shadow=1;glass=0;" parent="xYi-b84WzYEuYBwjNvaO-45" vertex="1">
          <mxGeometry x="390" y="190" width="120" height="50" as="geometry" />
        </mxCell>
        <mxCell id="jCbWclXcDCK_UydNv-eQ-12" value="&lt;b&gt;cosmwasm-crypto&lt;/b&gt;&lt;br&gt;3.0.2" style="rounded=1;whiteSpace=wrap;html=1;fillColor=#d5e8d4;strokeColor=#82b366;shadow=1;glass=0;" parent="xYi-b84WzYEuYBwjNvaO-45" vertex="1">
          <mxGeometry x="150" y="280" width="120" height="50" as="geometry" />
        </mxCell>
        <mxCell id="jCbWclXcDCK_UydNv-eQ-13" value="&lt;b&gt;cosmwasm-core&lt;/b&gt;&lt;br&gt;3.0.2" style="rounded=1;whiteSpace=wrap;html=1;fillColor=#d5e8d4;strokeColor=#82b366;shadow=1;glass=0;" parent="xYi-b84WzYEuYBwjNvaO-45" vertex="1">
          <mxGeometry x="150" y="380" width="120" height="50" as="geometry" />
        </mxCell>
        <mxCell id="jCbWclXcDCK_UydNv-eQ-17" value="&lt;b&gt;cw-schema&lt;/b&gt;&lt;div&gt;3.0.2&lt;/div&gt;" style="rounded=1;whiteSpace=wrap;html=1;fillColor=#d5e8d4;strokeColor=#82b366;shadow=1;glass=0;" parent="xYi-b84WzYEuYBwjNvaO-45" vertex="1">
          <mxGeometry x="560" y="380" width="90" height="50" as="geometry" />
        </mxCell>
        <mxCell id="jCbWclXcDCK_UydNv-eQ-18" value="&lt;b&gt;cw-schema-derive&lt;/b&gt;&lt;div&gt;3.0.2&lt;/div&gt;" style="rounded=1;whiteSpace=wrap;html=1;fillColor=#d5e8d4;strokeColor=#82b366;shadow=1;glass=0;" parent="xYi-b84WzYEuYBwjNvaO-45" vertex="1">
          <mxGeometry x="547.5" y="460" width="115" height="50" as="geometry" />
        </mxCell>
        <mxCell id="vACNibe5N-CeRTmWkf9M-1" value="&lt;b&gt;go-gen&lt;/b&gt;&lt;div&gt;0.1.0&lt;/div&gt;" style="rounded=1;whiteSpace=wrap;html=1;fillColor=#bac8d3;strokeColor=#23445d;shadow=1;align=center;verticalAlign=middle;fontFamily=Helvetica;fontSize=12;" parent="xYi-b84WzYEuYBwjNvaO-45" vertex="1">
          <mxGeometry x="460" y="30" width="120" height="50" as="geometry" />
        </mxCell>
        <mxCell id="xYi-b84WzYEuYBwjNvaO-34" value="" style="shape=waypoint;sketch=0;fillStyle=solid;size=6;pointerEvents=1;points=[];fillColor=none;resizable=0;rotatable=0;perimeter=centerPerimeter;snapToPoint=1;fontFamily=Helvetica;fontSize=11;fontColor=default;labelBackgroundColor=default;" parent="xYi-b84WzYEuYBwjNvaO-45" vertex="1">
          <mxGeometry x="130" y="-10" width="20" height="20" as="geometry" />
        </mxCell>
        <mxCell id="xYi-b84WzYEuYBwjNvaO-28" value="" style="shape=waypoint;sketch=0;fillStyle=solid;size=6;pointerEvents=1;points=[];fillColor=none;resizable=0;rotatable=0;perimeter=centerPerimeter;snapToPoint=1;fontFamily=Helvetica;fontSize=11;fontColor=default;labelBackgroundColor=default;" parent="xYi-b84WzYEuYBwjNvaO-45" vertex="1">
          <mxGeometry x="340" y="-10" width="20" height="20" as="geometry" />
        </mxCell>
        <mxCell id="6uAw8xBfnVH4JJ780lHa-8" value="&lt;font style=&quot;font-size: 8px;&quot;&gt;cosmwasm-schema&lt;/font&gt;" style="rounded=1;whiteSpace=wrap;html=1;fillColor=#d5e8d4;strokeColor=#82b366;shadow=0;glass=0;verticalAlign=bottom;rotation=-90;" vertex="1" parent="xYi-b84WzYEuYBwjNvaO-45">
          <mxGeometry x="630" y="80" width="85" height="15" as="geometry" />
        </mxCell>
        <mxCell id="6uAw8xBfnVH4JJ780lHa-9" value="&lt;font style=&quot;font-size: 8px;&quot;&gt;cosmwasm-std&lt;/font&gt;" style="rounded=1;whiteSpace=wrap;html=1;fillColor=#d5e8d4;strokeColor=#82b366;shadow=0;glass=0;verticalAlign=bottom;rotation=-90;" vertex="1" parent="xYi-b84WzYEuYBwjNvaO-45">
          <mxGeometry x="640" y="165" width="65" height="15" as="geometry" />
        </mxCell>
        <mxCell id="6uAw8xBfnVH4JJ780lHa-10" value="" style="shape=waypoint;sketch=0;fillStyle=solid;size=6;pointerEvents=1;points=[];fillColor=none;resizable=0;rotatable=0;perimeter=centerPerimeter;snapToPoint=1;" vertex="1" parent="xYi-b84WzYEuYBwjNvaO-45">
          <mxGeometry x="670" y="160" width="20" height="20" as="geometry" />
        </mxCell>
        <mxCell id="6uAw8xBfnVH4JJ780lHa-7" style="rounded=1;orthogonalLoop=1;jettySize=auto;html=1;entryX=0.338;entryY=1.001;entryDx=0;entryDy=0;edgeStyle=orthogonalEdgeStyle;entryPerimeter=0;curved=0;" edge="1" parent="6uAw8xBfnVH4JJ780lHa-17" source="6uAw8xBfnVH4JJ780lHa-10" target="6uAw8xBfnVH4JJ780lHa-5">
          <mxGeometry relative="1" as="geometry" />
        </mxCell>
        <mxCell id="6uAw8xBfnVH4JJ780lHa-12" style="rounded=0;orthogonalLoop=1;jettySize=auto;html=1;" edge="1" parent="6uAw8xBfnVH4JJ780lHa-17" source="6uAw8xBfnVH4JJ780lHa-11" target="6uAw8xBfnVH4JJ780lHa-5">
          <mxGeometry relative="1" as="geometry">
            <mxPoint x="700" y="345" as="sourcePoint" />
          </mxGeometry>
        </mxCell>
        <mxCell id="6uAw8xBfnVH4JJ780lHa-11" value="" style="shape=waypoint;sketch=0;fillStyle=solid;size=6;pointerEvents=1;points=[];fillColor=none;resizable=0;rotatable=0;perimeter=centerPerimeter;snapToPoint=1;" vertex="1" parent="6uAw8xBfnVH4JJ780lHa-17">
          <mxGeometry x="690" y="335" width="20" height="20" as="geometry" />
        </mxCell>
        <mxCell id="6uAw8xBfnVH4JJ780lHa-15" style="rounded=1;orthogonalLoop=1;jettySize=auto;html=1;edgeStyle=orthogonalEdgeStyle;entryX=0.166;entryY=-0.002;entryDx=0;entryDy=0;entryPerimeter=0;curved=0;" edge="1" parent="6uAw8xBfnVH4JJ780lHa-17" source="6uAw8xBfnVH4JJ780lHa-14" target="6uAw8xBfnVH4JJ780lHa-5">
          <mxGeometry relative="1" as="geometry">
            <mxPoint x="880" y="185" as="targetPoint" />
            <Array as="points">
              <mxPoint x="800" y="230" />
              <mxPoint x="800" y="290" />
            </Array>
          </mxGeometry>
        </mxCell>
        <mxCell id="6uAw8xBfnVH4JJ780lHa-14" value="" style="shape=waypoint;sketch=0;fillStyle=solid;size=6;pointerEvents=1;points=[];fillColor=none;resizable=0;rotatable=0;perimeter=centerPerimeter;snapToPoint=1;" vertex="1" parent="6uAw8xBfnVH4JJ780lHa-17">
          <mxGeometry x="445" y="220" width="20" height="20" as="geometry" />
        </mxCell>
        <mxCell id="6uAw8xBfnVH4JJ780lHa-16" style="edgeStyle=orthogonalEdgeStyle;rounded=1;orthogonalLoop=1;jettySize=auto;html=1;curved=0;entryX=0.832;entryY=0;entryDx=0;entryDy=0;entryPerimeter=0;" edge="1" parent="6uAw8xBfnVH4JJ780lHa-17" source="xYi-b84WzYEuYBwjNvaO-1" target="6uAw8xBfnVH4JJ780lHa-5">
          <mxGeometry relative="1" as="geometry">
            <Array as="points">
              <mxPoint x="880" y="85" />
            </Array>
          </mxGeometry>
        </mxCell>
        <mxCell id="xYi-b84WzYEuYBwjNvaO-20" style="shape=connector;rounded=0;orthogonalLoop=1;jettySize=auto;html=1;entryX=1;entryY=0.5;entryDx=0;entryDy=0;strokeColor=default;align=center;verticalAlign=middle;fontFamily=Helvetica;fontSize=11;fontColor=default;labelBackgroundColor=default;startSize=5;endArrow=classic;endFill=1;endSize=5;exitX=0;exitY=0.5;exitDx=0;exitDy=0;" parent="6uAw8xBfnVH4JJ780lHa-17" source="xYi-b84WzYEuYBwjNvaO-1" target="xYi-b84WzYEuYBwjNvaO-14" edge="1">
          <mxGeometry relative="1" as="geometry" />
        </mxCell>
        <mxCell id="xYi-b84WzYEuYBwjNvaO-6" style="shape=connector;rounded=0;orthogonalLoop=1;jettySize=auto;html=1;entryX=0.002;entryY=0.869;entryDx=0;entryDy=0;strokeColor=default;align=center;verticalAlign=middle;fontFamily=Helvetica;fontSize=11;fontColor=default;labelBackgroundColor=default;startSize=5;endArrow=classic;endFill=1;endSize=5;entryPerimeter=0;" parent="6uAw8xBfnVH4JJ780lHa-17" source="xYi-b84WzYEuYBwjNvaO-28" target="xYi-b84WzYEuYBwjNvaO-1" edge="1">
          <mxGeometry relative="1" as="geometry" />
        </mxCell>
      </root>
    </mxGraphModel>
  </diagram>
</mxfile>
